<svg version="1.0" xmlns="http://www.w3.org/2000/svg"
 width="540.000000pt" height="540.000000pt" viewBox="0 0 540.000000 540.000000"
 preserveAspectRatio="xMidYMid meet">

<g transform="translate(0.000000,540.000000) scale(0.100000,-0.100000)"
fill="#000000" stroke="none">
<path d="M4760 3405 c0 -54 0 -55 -30 -55 l-30 0 0 -60 0 -60 -30 0 -30 0 0
-60 0 -60 -30 0 -30 0 0 -60 0 -60 -30 0 c-30 0 -30 -1 -30 -55 0 -54 0 -55
-30 -55 l-30 0 0 -60 0 -60 -30 0 -30 0 0 -60 0 -60 -30 0 -30 0 0 -60 c0 -57
-1 -60 -25 -60 -24 0 -25 -3 -25 -55 0 -54 0 -55 -30 -55 l-30 0 0 -60 0 -60
-30 0 -30 0 0 -60 0 -60 -30 0 -30 0 0 -60 0 -60 -30 0 -30 0 0 -60 0 -60 -30
0 c-30 0 -30 -1 -30 -55 0 -54 0 -55 -30 -55 l-30 0 0 -60 0 -60 60 0 60 0 0
55 c0 54 0 55 30 55 l30 0 0 60 0 60 30 0 30 0 0 60 0 60 30 0 30 0 0 60 0 60
30 0 30 0 0 60 0 60 30 0 c30 0 30 1 30 55 0 54 0 55 30 55 l30 0 0 60 c0 57
1 60 25 60 24 0 25 3 25 60 l0 60 30 0 30 0 0 60 0 60 30 0 c30 0 30 1 30 55
0 54 0 55 30 55 l30 0 0 60 0 60 30 0 30 0 0 60 0 60 30 0 30 0 0 60 0 60 30
0 c30 0 30 1 30 55 0 54 0 55 30 55 l30 0 0 60 0 60 -60 0 -60 0 0 -55z"/>
<path d="M1110 2935 l0 -415 30 0 30 0 0 -60 0 -60 30 0 c30 0 30 -1 30 -55 0
-54 0 -55 30 -55 l30 0 0 -60 c0 -57 1 -60 25 -60 24 0 25 -3 25 -60 l0 -60
60 0 60 0 0 60 0 60 30 0 30 0 0 60 0 60 30 0 c30 0 30 1 30 55 l0 55 60 0 60
0 0 -55 c0 -54 0 -55 30 -55 l30 0 0 -60 c0 -57 1 -60 25 -60 24 0 25 -3 25
-60 l0 -60 60 0 60 0 0 60 0 60 30 0 30 0 0 60 0 60 30 0 c30 0 30 1 30 55 0
54 0 55 30 55 l30 0 0 60 0 60 30 0 30 0 0 415 0 415 -60 0 -60 0 0 -415 0
-415 -30 0 c-30 0 -30 -1 -30 -55 0 -54 0 -55 -30 -55 l-30 0 0 -60 0 -60 -55
0 -55 0 0 60 0 60 -30 0 c-30 0 -30 1 -30 55 0 54 0 55 -30 55 l-30 0 0 415 0
415 -60 0 -60 0 0 -415 0 -415 -30 0 c-30 0 -30 -1 -30 -55 0 -54 0 -55 -30
-55 l-30 0 0 -60 0 -60 -55 0 -55 0 0 60 0 60 -30 0 c-30 0 -30 1 -30 55 0 54
0 55 -30 55 l-30 0 0 415 0 415 -60 0 -60 0 0 -415z"/>
<path d="M2340 2700 l0 -650 60 0 60 0 0 295 0 295 175 0 175 0 0 -295 0 -295
60 0 60 0 0 650 0 650 -60 0 -60 0 0 -295 0 -295 -175 0 -175 0 0 295 0 295
-60 0 -60 0 0 -650z"/>
<path d="M3170 2700 l0 -650 235 0 235 0 0 60 0 60 -175 0 -175 0 0 590 0 590
-60 0 -60 0 0 -650z"/>
<path d="M400 2935 l0 -55 -60 0 -60 0 0 -60 0 -60 -60 0 -60 0 0 -60 0 -60
-55 0 -55 0 0 -60 0 -60 55 0 55 0 0 -60 0 -60 60 0 60 0 0 -55 0 -55 60 0 60
0 0 -60 0 -60 60 0 60 0 0 60 0 60 -60 0 -60 0 0 60 0 60 -60 0 -60 0 0 55 0
55 -55 0 -55 0 0 60 0 60 55 0 55 0 0 60 0 60 60 0 60 0 0 55 0 55 60 0 60 0
0 60 0 60 -60 0 -60 0 0 -55z"/>
<path d="M4870 2930 l0 -60 55 0 55 0 0 -55 0 -55 60 0 60 0 0 -60 0 -60 60 0
60 0 0 -60 0 -60 -60 0 -60 0 0 -55 0 -55 -60 0 -60 0 0 -60 0 -60 -55 0 -55
0 0 -60 0 -60 60 0 60 0 0 60 0 60 55 0 55 0 0 55 0 55 60 0 60 0 0 60 0 60
60 0 60 0 0 60 0 60 -60 0 -60 0 0 60 0 60 -60 0 -60 0 0 60 0 60 -55 0 -55 0
0 55 0 55 -60 0 -60 0 0 -60z"/>
</g>
</svg>